HIERARCHY
ROOT reference
{
  OFFSET 0 0 0
  CHANNELS 6 Xposition Yposition Zposition Zrotation Xrotation Yrotation
  JOINT Hips
  {
    OFFSET -6.59748 73.7087 -28.9491
    CHANNELS 6 Xposition Yposition Zposition Zrotation Xrotation Yrotation
    JOINT Spine
    {
      OFFSET 0 7.59534 0
      CHANNELS 6 Xposition Yposition Zposition Zrotation Xrotation Yrotation
      JOINT Spine1
      {
        OFFSET 0 23.5015 0
        CHANNELS 6 Xposition Yposition Zposition Zrotation Xrotation Yrotation
        JOINT Neck
        {
          OFFSET 0 23.405 2.12773
          CHANNELS 6 Xposition Yposition Zposition Zrotation Xrotation Yrotation
          JOINT Head
          {
            OFFSET 0 12.9677 -1.85252
            CHANNELS 6 Xposition Yposition Zposition Zrotation Xrotation Yrotation
            End Site
            {
              OFFSET 0 23.1565 0
            }
          }
        }
        JOINT LeftShoulder
        {
          OFFSET 3.62206 22.4732 -0.132728
          CHANNELS 6 Xposition Yposition Zposition Zrotation Xrotation Yrotation
          JOINT LeftArm
          {
            OFFSET 8.17784 0 0
            CHANNELS 6 Xposition Yposition Zposition Zrotation Xrotation Yrotation
            JOINT LeftForeArm
            {
              OFFSET 30.104 0 0
              CHANNELS 6 Xposition Yposition Zposition Zrotation Xrotation Yrotation
              JOINT LeftHand
              {
                OFFSET 24.4664 0 0
                CHANNELS 6 Xposition Yposition Zposition Zrotation Xrotation Yrotation
                End Site
                {
                  OFFSET 13.8939 0 0
                }
              }
            }
          }
        }
        JOINT RightShoulder
        {
          OFFSET -3.6336 22.4732 -0.132728
          CHANNELS 6 Xposition Yposition Zposition Zrotation Xrotation Yrotation
          JOINT RightArm
          {
            OFFSET -8.17784 0 0
            CHANNELS 6 Xposition Yposition Zposition Zrotation Xrotation Yrotation
            JOINT RightForeArm
            {
              OFFSET -30.104 0 0
              CHANNELS 6 Xposition Yposition Zposition Zrotation Xrotation Yrotation
              JOINT RightHand
              {
                OFFSET -24.4664 0 0
                CHANNELS 6 Xposition Yposition Zposition Zrotation Xrotation Yrotation
                End Site
                {
                  OFFSET -13.8939 0 0
                }
              }
            }
          }
        }
      }
    }
    JOINT LeftUpLeg
    {
      OFFSET 9.26261 0 0
      CHANNELS 6 Xposition Yposition Zposition Zrotation Xrotation Yrotation
      JOINT LeftLeg
      {
        OFFSET 0 -35.4897 0
        CHANNELS 6 Xposition Yposition Zposition Zrotation Xrotation Yrotation
        JOINT LeftFoot
        {
          OFFSET 0 -38.2023 0
          CHANNELS 6 Xposition Yposition Zposition Zrotation Xrotation Yrotation
          JOINT LeftToeBase
          {
            OFFSET 0 -6.0207 13.8939
            CHANNELS 6 Xposition Yposition Zposition Zrotation Xrotation Yrotation
            End Site
            {
              OFFSET 0 0 3.70504
            }
          }
        }
      }
    }
    JOINT RightUpLeg
    {
      OFFSET -9.26261 0 0
      CHANNELS 6 Xposition Yposition Zposition Zrotation Xrotation Yrotation
      JOINT RightLeg
      {
        OFFSET 0 -35.4897 0
        CHANNELS 6 Xposition Yposition Zposition Zrotation Xrotation Yrotation
        JOINT RightFoot
        {
          OFFSET 0 -38.2023 0
          CHANNELS 6 Xposition Yposition Zposition Zrotation Xrotation Yrotation
          JOINT RightToeBase
          {
            OFFSET 0 -6.0207 13.8939
            CHANNELS 6 Xposition Yposition Zposition Zrotation Xrotation Yrotation
            End Site
            {
              OFFSET 0 0 3.70504
            }
          }
        }
      }
    }
  }
}
MOTION
Frames:	4
Frame Time:	0.004
0 0 0 0 0 -0 -12.9906 75.5648 -203.453 -0.13514 -1.02443 -2.39454 0 7.59534 -2.84217e-014 0.331772 -5.75872 0.026579 3.55271e-015 23.5015 2.84217e-014 0.130705 -0.711884 0.0147209 0 23.405 2.12773 -4.37418 25.6799 -2.5355 0 12.9677 -1.85252 0.960665 0.781458 -2.90618 3.62206 22.4732 -0.132728 12.4899 2.36914 14.5359 8.17784 0 0 -17.5268 1.55382 -4.72515 30.104 5.68434e-014 0 1.62383 2.38721 0.979989 24.4664 -2.84217e-014 -2.84217e-014 -1.81782 2.38775 -0.917719 -3.6336 22.4732 -0.132728 -9.01408 1.08484 20.7463 -8.17784 2.84217e-014 0 15.3049 0.418063 -4.04755 -30.104 0 0 -2.57022 1.08021 0.848427 -24.4664 -2.84217e-014 0 -0.330409 1.10805 1.44176 9.26261 0 0 3.56956 12.3087 0.10536 0 -35.4897 2.84217e-014 -1.15003 -8.23732 -1.45802 -1.77636e-015 -38.2023 0 -0.532263 -3.7098 14.7759 7.10543e-015 -6.0207 13.8939 -4.22417e-016 0 -3.18055e-015 -9.26261 1.42109e-014 0 -5.36394 2.44491 -2.05302 -7.10543e-015 -35.4897 2.84217e-014 -1.46528 6.09899 -4.47003 0 -38.2023 0 2.22885 -5.4551 2.76021 0 -6.0207 13.8939 -0 0 7.95139e-016 
0 0 0 0 0 -0 -12.9906 75.5648 -203.443 -0.113777 -1.0588 -2.37107 0 7.59534 0 0.296764 -5.73553 0.014866 0 23.5015 0 0.142185 -0.699073 0.0147209 0 23.405 2.12773 -4.39009 25.6897 -2.53571 7.10543e-015 12.9677 -1.85252 0.976236 0.771257 -2.90618 3.62206 22.4732 -0.132728 12.4934 2.35865 14.5199 8.17784 0 0 -17.5268 1.55382 -4.72515 30.104 -2.84217e-014 -2.84217e-014 1.62593 2.38722 0.967066 24.4664 0 0 -1.81866 2.38776 -0.897627 -3.6336 22.4732 -0.132728 -9.03024 1.07863 20.7462 -8.17784 0 0 15.3052 0.42188 -4.04756 -30.104 0 0 -2.57022 1.08021 0.848427 -24.4664 0 -2.84217e-014 -0.270667 1.10804 1.46426 9.26261 0 0 3.53618 12.3718 0.080269 0 -35.4897 2.84217e-014 -1.12396 -8.29211 -1.46668 0 -38.2023 0 -0.556349 -3.68571 14.7703 0 -6.0207 13.8939 1.73937e-016 -1.98785e-016 3.18055e-015 -9.26261 0 -2.84217e-014 -5.39994 2.51084 -2.04954 0 -35.4897 0 -1.44447 6.06145 -4.51306 0 -38.2023 0 2.23239 -5.48728 2.78111 0 -6.0207 13.8939 -3.47873e-016 0 -0 
0 0 0 0 0 -0 -12.9906 75.5648 -203.453 -0.136655 -1.02031 -2.38464 -3.55271e-015 7.59534 0 0.318477 -5.76087 0.030012 0 23.5015 -2.84217e-014 0.140925 -0.70811 0.0147209 0 23.405 2.12773 -4.37494 25.6857 -2.53563 0 12.9677 -1.85252 0.961072 0.774063 -2.90618 3.62206 22.4732 -0.132728 12.5041 2.35219 14.5227 8.17784 -2.84217e-014 0 -17.5266 1.55381 -4.73175 30.104 0 0 1.63809 2.38744 0.967798 24.4664 0 0 -1.82019 2.38786 -0.897797 -3.6336 22.4732 -0.132728 -9.02833 1.07154 20.7462 -8.17784 0 0 15.3064 0.439386 -4.04757 -30.104 0 0 -2.57022 1.08021 0.848427 -24.4664 0 0 -0.249091 1.10315 1.47445 9.26261 -1.42109e-014 -2.84217e-014 3.56884 12.3107 0.099457 8.88178e-016 -35.4897 2.84217e-014 -1.14676 -8.2549 -1.44223 1.77636e-015 -38.2023 2.84217e-014 -0.523251 -3.69374 14.7633 0 -6.0207 13.8939 -4.96962e-017 9.93923e-017 1.59028e-015 -9.26261 1.42109e-014 -2.84217e-014 -5.36183 2.44623 -2.07461 0 -35.4897 0 -1.46705 6.08824 -4.51644 0 -38.2023 0 2.24558 -5.46062 2.82469 7.10543e-015 -6.0207 13.8939 3.97569e-016 0 -1.59028e-015 
0 0 0 0 0 -0 -12.9906 75.5648 -203.455 -0.140111 -1.01504 -2.38033 0 7.59534 0 0.32072 -5.76216 0.026031 0 23.5015 0 0.135384 -0.711301 0.0147209 0 23.405 2.12773 -4.36616 25.6816 -2.53554 0 12.9677 -1.85252 0.959087 0.785043 -2.90317 3.62206 22.4732 -0.132728 12.5094 2.35218 14.5203 8.17784 0 0 -17.5265 1.5538 -4.73621 30.104 -2.84217e-014 -2.84217e-014 1.64584 2.37608 0.96733 24.4664 0 -2.84217e-014 -1.84716 2.37665 -0.900671 -3.6336 22.4732 -0.132728 -9.02837 1.06971 20.7462 -8.17784 0 0 15.3102 0.452726 -4.04757 -30.104 0 -2.84217e-014 -2.56882 1.08021 0.848427 -24.4664 0 -2.84217e-014 -0.236515 1.10183 1.47618 9.26261 0 0 3.57424 12.2983 0.091616 -1.77636e-015 -35.4897 2.84217e-014 -1.14143 -8.24433 -1.50361 0 -38.2023 0 -0.544432 -3.71584 14.8201 0 -6.0207 13.8939 9.93923e-017 0 -0 -9.26261 1.42109e-014 0 -5.36047 2.44595 -2.07172 -1.42109e-014 -35.4897 0 -1.45923 6.07747 -4.52437 0 -38.2023 0 2.24474 -5.43753 2.82263 0 -6.0207 13.8939 7.45443e-016 0 -0 
